<?xml version="1.0" standalone="no"?>
<!DOCTYPE svg PUBLIC "-//W3C//DTD SVG 20010904//EN"
 "http://www.w3.org/TR/2001/REC-SVG-20010904/DTD/svg10.dtd">
<svg version="1.0" xmlns="http://www.w3.org/2000/svg"
 width="500.000000pt" height="500.000000pt" viewBox="0 0 500.000000 500.000000"
 preserveAspectRatio="xMidYMid meet">
<metadata>
Created by potrace 1.14, written by Peter Selinger 2001-2017
</metadata>
<g transform="translate(0.000000,500.000000) scale(0.100000,-0.100000)"
fill="#000000" stroke="none">
<path d="M0 2500 l0 -2500 2500 0 2500 0 0 2500 0 2500 -2500 0 -2500 0 0
-2500z m3021 960 c12 -7 19 -21 19 -38 -1 -15 -84 -188 -190 -392 l-189 -365
339 -3 340 -2 16 -25 c9 -13 13 -32 9 -42 -3 -10 -182 -169 -396 -353 -214
-184 -483 -417 -597 -518 -114 -100 -218 -185 -231 -189 -32 -8 -55 8 -59 40
-2 18 55 138 187 394 l190 368 -336 3 c-299 2 -339 4 -355 19 -11 9 -18 26
-16 37 3 18 251 237 1116 987 56 49 109 89 118 89 8 0 24 -5 35 -10z m-1966
-317 c18 -47 475 -1362 475 -1367 0 -4 -39 -5 -87 -4 l-86 3 -62 185 -62 185
-298 0 -298 0 -62 -185 -62 -185 -86 -3 -87 -3 60 173 c33 95 142 408 243 695
l182 523 111 0 c97 0 113 -2 119 -17z m3315 6 c123 -20 207 -73 255 -161 25
-45 30 -67 33 -144 4 -75 1 -99 -16 -136 -24 -56 -79 -118 -126 -143 -36 -19
-48 -45 -23 -45 8 0 41 -14 75 -31 76 -38 144 -111 169 -182 26 -77 23 -223
-7 -301 -28 -73 -96 -148 -163 -183 -91 -46 -156 -53 -504 -53 l-323 0 0 695
0 695 283 0 c155 0 311 -5 347 -11z"/>
<path d="M810 2653 c-62 -186 -115 -344 -118 -350 -3 -10 49 -13 242 -13 135
0 246 2 246 6 0 26 -235 694 -245 694 -7 0 -59 -142 -125 -337z"/>
<path d="M3910 2799 l0 -220 229 3 229 3 43 30 c61 43 89 102 89 184 -1 109
-51 186 -138 211 -20 5 -130 10 -244 10 l-208 0 0 -221z"/>
<path d="M3910 2169 l0 -272 238 5 c211 5 243 8 293 27 59 23 95 55 125 111
15 27 19 57 19 130 0 120 -24 177 -92 221 -67 41 -122 49 -363 49 l-220 0 0
-271z"/>
</g>
</svg>
